<svg data-v-423bf9ae="" xmlns="http://www.w3.org/2000/svg" viewBox="0 0 435 90" class="iconLeft"><!----><!----><defs data-v-423bf9ae=""><linearGradient data-v-423bf9ae="" gradientTransform="rotate(25)" id="323ff119-6eb3-4418-8289-1189545ada3c" x1="0%" y1="0%" x2="100%" y2="0%"><stop data-v-423bf9ae="" offset="0%" style="stop-color: rgb(134, 188, 66); stop-opacity: 1;"></stop><stop data-v-423bf9ae="" offset="100%" style="stop-color: rgb(45, 62, 80); stop-opacity: 1;"></stop></linearGradient></defs><g data-v-423bf9ae="" id="a175e753-a20b-4c5a-8a0f-bd38caf26b49" fill="url(#323ff119-6eb3-4418-8289-1189545ada3c)" transform="matrix(4.457652290486928,0,0,4.457652290486928,154.37749901011892,5.282317947576686)"><path d="M0.81 8.19L0.81 8.19L0.81 8.19Q0.81 6.94 1.18 5.99L1.18 5.99L1.18 5.99Q1.55 5.04 2.19 4.40L2.19 4.40L2.19 4.40Q2.83 3.77 3.68 3.44L3.68 3.44L3.68 3.44Q4.52 3.12 5.47 3.12L5.47 3.12L5.47 3.12Q6.41 3.12 7.25 3.44L7.25 3.44L7.25 3.44Q8.08 3.77 8.71 4.40L8.71 4.40L8.71 4.40Q9.34 5.04 9.71 5.99L9.71 5.99L9.71 5.99Q10.08 6.94 10.08 8.19L10.08 8.19L10.08 8.19Q10.08 9.28 9.80 10.14L9.80 10.14L9.80 10.14Q9.52 10.99 9.02 11.61L9.02 11.61L9.02 11.61Q8.53 12.24 7.86 12.62L7.86 12.62L7.86 12.62Q7.20 13.01 6.44 13.15L6.44 13.15L6.44 13.15Q6.45 13.47 6.73 13.71L6.73 13.71L6.73 13.71Q7 13.96 7.42 14.13L7.42 14.13L7.42 14.13Q7.84 14.29 8.36 14.41L8.36 14.41L8.36 14.41Q8.88 14.52 9.39 14.57L9.39 14.57L9.07 15.64L9.07 15.64Q8.34 15.54 7.68 15.38L7.68 15.38L7.68 15.38Q7.01 15.22 6.48 14.95L6.48 14.95L6.48 14.95Q5.94 14.69 5.57 14.27L5.57 14.27L5.57 14.27Q5.21 13.86 5.08 13.24L5.08 13.24L5.08 13.24Q4.20 13.19 3.42 12.83L3.42 12.83L3.42 12.83Q2.63 12.47 2.06 11.84L2.06 11.84L2.06 11.84Q1.48 11.20 1.15 10.29L1.15 10.29L1.15 10.29Q0.81 9.38 0.81 8.19ZM2.24 8.19L2.24 8.19L2.24 8.19Q2.24 9.07 2.46 9.79L2.46 9.79L2.46 9.79Q2.69 10.51 3.10 11.02L3.10 11.02L3.10 11.02Q3.51 11.52 4.11 11.79L4.11 11.79L4.11 11.79Q4.70 12.07 5.45 12.07L5.45 12.07L5.45 12.07Q6.19 12.07 6.78 11.79L6.78 11.79L6.78 11.79Q7.36 11.52 7.78 11.02L7.78 11.02L7.78 11.02Q8.19 10.51 8.41 9.79L8.41 9.79L8.41 9.79Q8.64 9.07 8.64 8.19L8.64 8.19L8.64 8.19Q8.64 7.31 8.41 6.59L8.41 6.59L8.41 6.59Q8.19 5.87 7.78 5.36L7.78 5.36L7.78 5.36Q7.36 4.86 6.78 4.58L6.78 4.58L6.78 4.58Q6.19 4.31 5.45 4.31L5.45 4.31L5.45 4.31Q4.70 4.31 4.11 4.58L4.11 4.58L4.11 4.58Q3.51 4.86 3.10 5.36L3.10 5.36L3.10 5.36Q2.69 5.87 2.46 6.59L2.46 6.59L2.46 6.59Q2.24 7.31 2.24 8.19ZM17.81 5.77L17.81 12.84L17.81 12.84Q17.36 12.95 16.63 13.08L16.63 13.08L16.63 13.08Q15.89 13.20 14.92 13.20L14.92 13.20L14.92 13.20Q14.08 13.20 13.51 12.96L13.51 12.96L13.51 12.96Q12.94 12.71 12.59 12.26L12.59 12.26L12.59 12.26Q12.24 11.82 12.08 11.21L12.08 11.21L12.08 11.21Q11.93 10.60 11.93 9.86L11.93 9.86L11.93 5.77L13.23 5.77L13.23 9.58L13.23 9.58Q13.23 10.91 13.65 11.48L13.65 11.48L13.65 11.48Q14.07 12.05 15.06 12.05L15.06 12.05L15.06 12.05Q15.27 12.05 15.50 12.04L15.50 12.04L15.50 12.04Q15.72 12.03 15.92 12.01L15.92 12.01L15.92 12.01Q16.11 11.98 16.27 11.96L16.27 11.96L16.27 11.96Q16.44 11.94 16.51 11.91L16.51 11.91L16.51 5.77L17.81 5.77ZM22.51 12.11L22.51 12.11L22.51 12.11Q22.97 12.11 23.33 12.09L23.33 12.09L23.33 12.09Q23.69 12.07 23.93 12.01L23.93 12.01L23.93 9.84L23.93 9.84Q23.79 9.77 23.47 9.72L23.47 9.72L23.47 9.72Q23.16 9.67 22.71 9.67L22.71 9.67L22.71 9.67Q22.41 9.67 22.08 9.72L22.08 9.72L22.08 9.72Q21.76 9.76 21.48 9.89L21.48 9.89L21.48 9.89Q21.21 10.02 21.03 10.25L21.03 10.25L21.03 10.25Q20.85 10.49 20.85 10.86L20.85 10.86L20.85 10.86Q20.85 11.56 21.29 11.84L21.29 11.84L21.29 11.84Q21.74 12.11 22.51 12.11ZM22.40 5.59L22.40 5.59L22.40 5.59Q23.18 5.59 23.72 5.79L23.72 5.79L23.72 5.79Q24.26 5.99 24.59 6.36L24.59 6.36L24.59 6.36Q24.92 6.73 25.06 7.25L25.06 7.25L25.06 7.25Q25.20 7.76 25.20 8.37L25.20 8.37L25.20 12.92L25.20 12.92Q25.03 12.95 24.73 13.00L24.73 13.00L24.73 13.00Q24.43 13.05 24.05 13.09L24.05 13.09L24.05 13.09Q23.67 13.13 23.23 13.17L23.23 13.17L23.23 13.17Q22.79 13.20 22.36 13.20L22.36 13.20L22.36 13.20Q21.74 13.20 21.22 13.08L21.22 13.08L21.22 13.08Q20.71 12.95 20.33 12.68L20.33 12.68L20.33 12.68Q19.95 12.40 19.74 11.96L19.74 11.96L19.74 11.96Q19.53 11.51 19.53 10.88L19.53 10.88L19.53 10.88Q19.53 10.28 19.77 9.84L19.77 9.84L19.77 9.84Q20.02 9.41 20.44 9.14L20.44 9.14L20.44 9.14Q20.86 8.88 21.42 8.75L21.42 8.75L21.42 8.75Q21.98 8.62 22.60 8.62L22.60 8.62L22.60 8.62Q22.79 8.62 23.00 8.64L23.00 8.64L23.00 8.64Q23.21 8.67 23.40 8.70L23.40 8.70L23.40 8.70Q23.59 8.74 23.73 8.76L23.73 8.76L23.73 8.76Q23.87 8.79 23.93 8.81L23.93 8.81L23.93 8.44L23.93 8.44Q23.93 8.12 23.86 7.80L23.86 7.80L23.86 7.80Q23.79 7.49 23.60 7.25L23.60 7.25L23.60 7.25Q23.42 7 23.11 6.85L23.11 6.85L23.11 6.85Q22.79 6.71 22.29 6.71L22.29 6.71L22.29 6.71Q21.64 6.71 21.16 6.80L21.16 6.80L21.16 6.80Q20.68 6.89 20.44 6.99L20.44 6.99L20.29 5.91L20.29 5.91Q20.54 5.80 21.13 5.69L21.13 5.69L21.13 5.69Q21.71 5.59 22.40 5.59ZM26.46 3.35L33.92 3.35L33.92 4.52L30.87 4.52L30.87 13.05L29.51 13.05L29.51 4.52L26.46 4.52L26.46 3.35ZM34.86 9.42L34.86 9.42L34.86 9.42Q34.86 8.46 35.14 7.74L35.14 7.74L35.14 7.74Q35.42 7.01 35.88 6.54L35.88 6.54L35.88 6.54Q36.34 6.06 36.95 5.82L36.95 5.82L36.95 5.82Q37.55 5.59 38.18 5.59L38.18 5.59L38.18 5.59Q39.65 5.59 40.43 6.50L40.43 6.50L40.43 6.50Q41.22 7.42 41.22 9.30L41.22 9.30L41.22 9.30Q41.22 9.38 41.22 9.51L41.22 9.51L41.22 9.51Q41.22 9.65 41.20 9.76L41.20 9.76L36.22 9.76L36.22 9.76Q36.30 10.89 36.88 11.48L36.88 11.48L36.88 11.48Q37.45 12.07 38.67 12.07L38.67 12.07L38.67 12.07Q39.35 12.07 39.82 11.95L39.82 11.95L39.82 11.95Q40.29 11.83 40.53 11.72L40.53 11.72L40.71 12.81L40.71 12.81Q40.47 12.94 39.88 13.08L39.88 13.08L39.88 13.08Q39.28 13.22 38.53 13.22L38.53 13.22L38.53 13.22Q37.58 13.22 36.88 12.93L36.88 12.93L36.88 12.93Q36.19 12.64 35.74 12.14L35.74 12.14L35.74 12.14Q35.29 11.63 35.08 10.94L35.08 10.94L35.08 10.94Q34.86 10.25 34.86 9.42ZM36.25 8.71L39.86 8.71L39.86 8.71Q39.87 7.83 39.42 7.26L39.42 7.26L39.42 7.26Q38.96 6.69 38.16 6.69L38.16 6.69L38.16 6.69Q37.72 6.69 37.37 6.87L37.37 6.87L37.37 6.87Q37.03 7.04 36.79 7.32L36.79 7.32L36.79 7.32Q36.55 7.60 36.42 7.97L36.42 7.97L36.42 7.97Q36.29 8.33 36.25 8.71L36.25 8.71ZM45.56 12.11L45.56 12.11L45.56 12.11Q46.02 12.11 46.38 12.09L46.38 12.09L46.38 12.09Q46.73 12.07 46.97 12.01L46.97 12.01L46.97 9.84L46.97 9.84Q46.83 9.77 46.52 9.72L46.52 9.72L46.52 9.72Q46.20 9.67 45.75 9.67L45.75 9.67L45.75 9.67Q45.46 9.67 45.13 9.72L45.13 9.72L45.13 9.72Q44.80 9.76 44.53 9.89L44.53 9.89L44.53 9.89Q44.25 10.02 44.07 10.25L44.07 10.25L44.07 10.25Q43.89 10.49 43.89 10.86L43.89 10.86L43.89 10.86Q43.89 11.56 44.34 11.84L44.34 11.84L44.34 11.84Q44.79 12.11 45.56 12.11ZM45.44 5.59L45.44 5.59L45.44 5.59Q46.23 5.59 46.77 5.79L46.77 5.79L46.77 5.79Q47.31 5.99 47.64 6.36L47.64 6.36L47.64 6.36Q47.96 6.73 48.10 7.25L48.10 7.25L48.10 7.25Q48.24 7.76 48.24 8.37L48.24 8.37L48.24 12.92L48.24 12.92Q48.08 12.95 47.77 13.00L47.77 13.00L47.77 13.00Q47.47 13.05 47.10 13.09L47.10 13.09L47.10 13.09Q46.72 13.13 46.28 13.17L46.28 13.17L46.28 13.17Q45.84 13.20 45.40 13.20L45.40 13.20L45.40 13.20Q44.79 13.20 44.27 13.08L44.27 13.08L44.27 13.08Q43.75 12.95 43.37 12.68L43.37 12.68L43.37 12.68Q42.99 12.40 42.78 11.96L42.78 11.96L42.78 11.96Q42.57 11.51 42.57 10.88L42.57 10.88L42.57 10.88Q42.57 10.28 42.82 9.84L42.82 9.84L42.82 9.84Q43.06 9.41 43.48 9.14L43.48 9.14L43.48 9.14Q43.90 8.88 44.46 8.75L44.46 8.75L44.46 8.75Q45.02 8.62 45.64 8.62L45.64 8.62L45.64 8.62Q45.84 8.62 46.05 8.64L46.05 8.64L46.05 8.64Q46.26 8.67 46.45 8.70L46.45 8.70L46.45 8.70Q46.63 8.74 46.77 8.76L46.77 8.76L46.77 8.76Q46.91 8.79 46.97 8.81L46.97 8.81L46.97 8.44L46.97 8.44Q46.97 8.12 46.90 7.80L46.90 7.80L46.90 7.80Q46.83 7.49 46.65 7.25L46.65 7.25L46.65 7.25Q46.47 7 46.15 6.85L46.15 6.85L46.15 6.85Q45.84 6.71 45.33 6.71L45.33 6.71L45.33 6.71Q44.69 6.71 44.20 6.80L44.20 6.80L44.20 6.80Q43.72 6.89 43.48 6.99L43.48 6.99L43.33 5.91L43.33 5.91Q43.58 5.80 44.17 5.69L44.17 5.69L44.17 5.69Q44.76 5.59 45.44 5.59ZM53.56 13.22L53.56 13.22L53.56 13.22Q52.68 13.22 52.02 12.94L52.02 12.94L52.02 12.94Q51.35 12.66 50.90 12.15L50.90 12.15L50.90 12.15Q50.44 11.65 50.22 10.96L50.22 10.96L50.22 10.96Q49.99 10.26 49.99 9.42L49.99 9.42L49.99 9.42Q49.99 8.58 50.24 7.88L50.24 7.88L50.24 7.88Q50.48 7.18 50.93 6.67L50.93 6.67L50.93 6.67Q51.38 6.16 52.03 5.87L52.03 5.87L52.03 5.87Q52.68 5.59 53.48 5.59L53.48 5.59L53.48 5.59Q53.97 5.59 54.46 5.67L54.46 5.67L54.46 5.67Q54.95 5.75 55.40 5.94L55.40 5.94L55.10 7.04L55.10 7.04Q54.81 6.90 54.43 6.82L54.43 6.82L54.43 6.82Q54.04 6.73 53.61 6.73L53.61 6.73L53.61 6.73Q52.51 6.73 51.93 7.42L51.93 7.42L51.93 7.42Q51.35 8.11 51.35 9.42L51.35 9.42L51.35 9.42Q51.35 10.01 51.48 10.50L51.48 10.50L51.48 10.50Q51.62 10.99 51.91 11.34L51.91 11.34L51.91 11.34Q52.19 11.69 52.64 11.88L52.64 11.88L52.64 11.88Q53.09 12.07 53.73 12.07L53.73 12.07L53.73 12.07Q54.25 12.07 54.67 11.97L54.67 11.97L54.67 11.97Q55.09 11.87 55.33 11.76L55.33 11.76L55.51 12.85L55.51 12.85Q55.40 12.92 55.19 12.98L55.19 12.98L55.19 12.98Q54.98 13.05 54.71 13.10L54.71 13.10L54.71 13.10Q54.45 13.15 54.15 13.18L54.15 13.18L54.15 13.18Q53.84 13.22 53.56 13.22ZM58.21 13.05L56.91 13.05L56.91 2.41L58.21 2.18L58.21 5.91L58.21 5.91Q58.58 5.77 58.99 5.69L58.99 5.69L58.99 5.69Q59.40 5.61 59.81 5.61L59.81 5.61L59.81 5.61Q60.68 5.61 61.25 5.86L61.25 5.86L61.25 5.86Q61.82 6.10 62.17 6.54L62.17 6.54L62.17 6.54Q62.51 6.99 62.65 7.60L62.65 7.60L62.65 7.60Q62.79 8.22 62.79 8.96L62.79 8.96L62.79 13.05L61.49 13.05L61.49 9.24L61.49 9.24Q61.49 8.57 61.40 8.09L61.40 8.09L61.40 8.09Q61.31 7.62 61.10 7.32L61.10 7.32L61.10 7.32Q60.89 7.03 60.54 6.89L60.54 6.89L60.54 6.89Q60.19 6.76 59.67 6.76L59.67 6.76L59.67 6.76Q59.46 6.76 59.23 6.79L59.23 6.79L59.23 6.79Q59.01 6.82 58.81 6.85L58.81 6.85L58.81 6.85Q58.60 6.89 58.44 6.93L58.44 6.93L58.44 6.93Q58.28 6.97 58.21 7L58.21 7L58.21 13.05Z"></path></g><defs data-v-423bf9ae=""><linearGradient data-v-423bf9ae="" gradientTransform="rotate(25)" id="7c3a5868-0436-442d-a917-ac2dee1e61f2" x1="0%" y1="0%" x2="100%" y2="0%"><stop data-v-423bf9ae="" offset="0%" style="stop-color: rgb(134, 188, 66); stop-opacity: 1;"></stop><stop data-v-423bf9ae="" offset="100%" style="stop-color: rgb(134, 188, 66); stop-opacity: 1;"></stop></linearGradient></defs><g data-v-423bf9ae="" id="a4c1e98d-0152-40f9-a8d1-3e7cc85975c7" transform="matrix(1.724956899766184,0,0,1.724956899766184,-8.619795039761499,-33.08283340935279)" stroke="none" fill="url(#7c3a5868-0436-442d-a917-ac2dee1e61f2)"><path d="M83.964 32.86L45.339 19.51a1.544 1.544 0 0 0-1.009.001L6.032 32.861a1.539 1.539 0 0 0-.047 2.888l15.553 5.999v15.533c0 .87.852 1.422 1.599 1.786.99.443 2.593.973 5.188 1.642v8.326a1.538 1.538 0 1 0 2.682 1.03l3.15-3.5 3.15 3.5a1.536 1.536 0 0 0 1.696.407 1.54 1.54 0 0 0 .986-1.438l-.009-6.343a58.25 58.25 0 0 0 4.586.206c6.329 0 11.955-1.043 15.56-1.918 7.47-1.813 7.47-2.464 7.47-3.449V42.028l16.414-6.277a1.54 1.54 0 0 0-.046-2.891zM24.616 56.321V42.934l3.709 1.432v13.149a46.462 46.462 0 0 1-3.709-1.194zm10.685 6.913c-.583-.646-1.704-.646-2.287 0l-1.612 1.791v-19.47l5.48 2.111.025 17.353-1.606-1.785zm29.22-6.735c-2.622.941-10.68 3.32-19.953 3.32-1.497 0-3.039-.085-4.591-.215l-.016-10.751 4.322 1.667a1.533 1.533 0 0 0 1.103.002l19.134-7.318v13.295zm-19.682-9.061l-5.866-2.263h-.001l-.386-.149-27.583-10.639 33.835-11.794 34.124 11.794-34.123 13.051z"></path></g><!----></svg>